<svg xmlns="http://www.w3.org/2000/svg" class="funnel-svg" viewBox="-28 0 949 124.0" preserveAspectRatio="xMidYMid meet" role="img" aria-label="AVF: Boba"><style>.funnel-flow{stroke:none}.funnel-flow.spine{fill:#059669;opacity:.16}.funnel-flow.success{fill:#059669;opacity:.55}.funnel-flow.win{fill:#059669;opacity:.42}.funnel-flow.fail{fill:#b91c1c;opacity:.38}.funnel-bar.start{fill:#aaa}.funnel-bar.spine,.funnel-bar.success,.funnel-bar.win{fill:#059669}.funnel-bar.fail{fill:#b91c1c}.funnel-name{font-family:Arial,sans-serif;font-size:12.5px;font-weight:600;fill:#333}.funnel-sub{font-family:Arial,sans-serif;font-size:11px;fill:#777}.funnel-name.success,.funnel-name.win,.funnel-sub.success,.funnel-sub.win{fill:#059669}.funnel-name.fail,.funnel-sub.fail{fill:#b91c1c}</style>
      <path class="funnel-flow spine" d="M23.0,36.0 C121.9,36.0 121.9,36.0 220.8,36.0 L220.8,100.0 C121.9,100.0 121.9,100.0 23.0,100.0 Z"/><path class="funnel-flow spine" d="M229.8,36.0 C328.6,36.0 328.6,36.0 427.5,36.0 L427.5,100.0 C328.6,100.0 328.6,100.0 229.8,100.0 Z"/><path class="funnel-flow spine" d="M436.5,36.0 C535.4,36.0 535.4,36.0 634.3,36.0 L634.3,64.2 C535.4,64.2 535.4,64.2 436.5,64.2 Z"/><path class="funnel-flow fail" d="M436.5,64.2 C535.4,64.2 535.4,72.2 634.3,72.2 L634.3,108.0 C535.4,108.0 535.4,100.0 436.5,100.0 Z"/><path class="funnel-flow success" d="M643.3,36.0 C742.1,36.0 742.1,36.0 841.0,36.0 L841.0,64.2 C742.1,64.2 742.1,64.2 643.3,64.2 Z"/><rect class="funnel-bar start" x="14.0" y="36.0" width="9" height="64.0" rx="2"/><rect class="funnel-bar spine" x="220.8" y="36.0" width="9" height="64.0" rx="2"/><rect class="funnel-bar spine" x="427.5" y="36.0" width="9" height="64.0" rx="2"/><rect class="funnel-bar spine" x="634.3" y="36.0" width="9" height="28.2" rx="2"/><rect class="funnel-bar success" x="841.0" y="36.0" width="9" height="28.2" rx="2"/><rect class="funnel-bar fail" x="634.3" y="72.2" width="9" height="35.8" rx="2"/><text class="funnel-name start" x="18.5" y="12.0" text-anchor="middle">All Trials</text><text class="funnel-sub start" x="18.5" y="26.0" text-anchor="middle">25</text><text class="funnel-name spine" x="225.3" y="12.0" text-anchor="middle">Pick Cup</text><text class="funnel-sub spine" x="225.3" y="26.0" text-anchor="middle">25 · 100%</text><text class="funnel-name spine" x="432.0" y="12.0" text-anchor="middle">Pick Straw</text><text class="funnel-sub spine" x="432.0" y="26.0" text-anchor="middle">25 · 100%</text><text class="funnel-name spine" x="638.8" y="12.0" text-anchor="middle">Insert Straw</text><text class="funnel-sub spine" x="638.8" y="26.0" text-anchor="middle">11 · 44%</text><text class="funnel-name success" x="845.5" y="12.0" text-anchor="middle">Place On Coaster ✓</text><text class="funnel-sub success" x="845.5" y="26.0" text-anchor="middle">11 · 100%</text><text class="funnel-name fail" x="649.3" y="89.1">✗ 14</text><text class="funnel-sub fail" x="649.3" y="101.1">no insert straw</text>
    </svg>
