<svg xmlns="http://www.w3.org/2000/svg" class="funnel-svg" viewBox="-28 0 987 124.0" preserveAspectRatio="xMidYMid meet" role="img" aria-label="Without stereo: Wrench"><style>.funnel-flow{stroke:none}.funnel-flow.spine{fill:#059669;opacity:.16}.funnel-flow.success{fill:#059669;opacity:.55}.funnel-flow.win{fill:#059669;opacity:.42}.funnel-flow.fail{fill:#b91c1c;opacity:.38}.funnel-bar.start{fill:#aaa}.funnel-bar.spine,.funnel-bar.success,.funnel-bar.win{fill:#059669}.funnel-bar.fail{fill:#b91c1c}.funnel-name{font-family:Arial,sans-serif;font-size:12.5px;font-weight:600;fill:#333}.funnel-sub{font-family:Arial,sans-serif;font-size:11px;fill:#777}.funnel-name.success,.funnel-name.win,.funnel-sub.success,.funnel-sub.win{fill:#059669}.funnel-name.fail,.funnel-sub.fail{fill:#b91c1c}</style>
      <path class="funnel-flow spine" d="M23.0,36.0 C156.3,36.0 156.3,36.0 289.7,36.0 L289.7,92.3 C156.3,92.3 156.3,92.3 23.0,92.3 Z"/><path class="funnel-flow fail" d="M23.0,92.3 C156.3,92.3 156.3,100.3 289.7,100.3 L289.7,108.0 C156.3,108.0 156.3,100.0 23.0,100.0 Z"/><path class="funnel-flow spine" d="M298.7,36.0 C432.0,36.0 432.0,36.0 565.3,36.0 L565.3,82.1 C432.0,82.1 432.0,82.1 298.7,82.1 Z"/><path class="funnel-flow fail" d="M298.7,82.1 C432.0,82.1 432.0,90.1 565.3,90.1 L565.3,100.3 C432.0,100.3 432.0,92.3 298.7,92.3 Z"/><path class="funnel-flow success" d="M574.3,36.0 C707.7,36.0 707.7,36.0 841.0,36.0 L841.0,77.0 C707.7,77.0 707.7,77.0 574.3,77.0 Z"/><path class="funnel-flow fail" d="M574.3,77.0 C707.7,77.0 707.7,85.0 841.0,85.0 L841.0,90.1 C707.7,90.1 707.7,82.1 574.3,82.1 Z"/><rect class="funnel-bar start" x="14.0" y="36.0" width="9" height="64.0" rx="2"/><rect class="funnel-bar spine" x="289.7" y="36.0" width="9" height="56.3" rx="2"/><rect class="funnel-bar spine" x="565.3" y="36.0" width="9" height="46.1" rx="2"/><rect class="funnel-bar success" x="841.0" y="36.0" width="9" height="41.0" rx="2"/><rect class="funnel-bar fail" x="841.0" y="85.0" width="9" height="5.1" rx="2"/><rect class="funnel-bar fail" x="565.3" y="90.1" width="9" height="10.2" rx="2"/><rect class="funnel-bar fail" x="289.7" y="100.3" width="9" height="7.7" rx="2"/><text class="funnel-name start" x="18.5" y="12.0" text-anchor="middle">All Trials</text><text class="funnel-sub start" x="18.5" y="26.0" text-anchor="middle">25</text><text class="funnel-name spine" x="294.2" y="12.0" text-anchor="middle">Grab Tab</text><text class="funnel-sub spine" x="294.2" y="26.0" text-anchor="middle">22 · 88%</text><text class="funnel-name spine" x="569.8" y="12.0" text-anchor="middle">Open Box</text><text class="funnel-sub spine" x="569.8" y="26.0" text-anchor="middle">18 · 82%</text><text class="funnel-name success" x="845.5" y="12.0" text-anchor="middle">Grab Wrench ✓</text><text class="funnel-sub success" x="845.5" y="26.0" text-anchor="middle">16 · 89%</text><text class="funnel-name fail" x="856.0" y="86.5">✗ 2</text><text class="funnel-sub fail" x="856.0" y="98.5">no grab wrench</text><text class="funnel-name fail" x="580.3" y="94.2">✗ 4</text><text class="funnel-sub fail" x="580.3" y="106.2">no open box</text><text class="funnel-name fail" x="304.7" y="103.2">✗ 3</text><text class="funnel-sub fail" x="304.7" y="115.2">no grab tab</text>
    </svg>
