<svg xmlns="http://www.w3.org/2000/svg" class="funnel-svg" viewBox="-28 0 980 124.0" preserveAspectRatio="xMidYMid meet" role="img" aria-label="Without foveation: Toaster"><style>.funnel-flow{stroke:none}.funnel-flow.spine{fill:#059669;opacity:.16}.funnel-flow.success{fill:#059669;opacity:.55}.funnel-flow.win{fill:#059669;opacity:.42}.funnel-flow.fail{fill:#b91c1c;opacity:.38}.funnel-bar.start{fill:#aaa}.funnel-bar.spine,.funnel-bar.success,.funnel-bar.win{fill:#059669}.funnel-bar.fail{fill:#b91c1c}.funnel-name{font-family:Arial,sans-serif;font-size:12.5px;font-weight:600;fill:#333}.funnel-sub{font-family:Arial,sans-serif;font-size:11px;fill:#777}.funnel-name.success,.funnel-name.win,.funnel-sub.success,.funnel-sub.win{fill:#059669}.funnel-name.fail,.funnel-sub.fail{fill:#b91c1c}</style>
      <path class="funnel-flow spine" d="M23.0,36.0 C87.4,36.0 87.4,36.0 151.8,36.0 L151.8,97.4 C87.4,97.4 87.4,97.4 23.0,97.4 Z"/><path class="funnel-flow fail" d="M23.0,97.4 C87.4,97.4 87.4,105.4 151.8,105.4 L151.8,108.0 C87.4,108.0 87.4,100.0 23.0,100.0 Z"/><path class="funnel-flow spine" d="M160.8,36.0 C225.3,36.0 225.3,36.0 289.7,36.0 L289.7,71.8 C225.3,71.8 225.3,71.8 160.8,71.8 Z"/><path class="funnel-flow fail" d="M160.8,71.8 C225.3,71.8 225.3,79.8 289.7,79.8 L289.7,105.4 C225.3,105.4 225.3,97.4 160.8,97.4 Z"/><path class="funnel-flow spine" d="M298.7,36.0 C363.1,36.0 363.1,36.0 427.5,36.0 L427.5,66.7 C363.1,66.7 363.1,66.7 298.7,66.7 Z"/><path class="funnel-flow fail" d="M298.7,66.7 C363.1,66.7 363.1,74.7 427.5,74.7 L427.5,79.8 C363.1,79.8 363.1,71.8 298.7,71.8 Z"/><path class="funnel-flow spine" d="M436.5,36.0 C500.9,36.0 500.9,36.0 565.3,36.0 L565.3,66.7 C500.9,66.7 500.9,66.7 436.5,66.7 Z"/><path class="funnel-flow spine" d="M574.3,36.0 C638.8,36.0 638.8,36.0 703.2,36.0 L703.2,64.2 C638.8,64.2 638.8,64.2 574.3,64.2 Z"/><path class="funnel-flow fail" d="M574.3,64.2 C638.8,64.2 638.8,72.2 703.2,72.2 L703.2,74.7 C638.8,74.7 638.8,66.7 574.3,66.7 Z"/><path class="funnel-flow success" d="M712.2,36.0 C776.6,36.0 776.6,36.0 841.0,36.0 L841.0,59.0 C776.6,59.0 776.6,59.0 712.2,59.0 Z"/><path class="funnel-flow fail" d="M712.2,59.0 C776.6,59.0 776.6,67.0 841.0,67.0 L841.0,72.2 C776.6,72.2 776.6,64.2 712.2,64.2 Z"/><rect class="funnel-bar start" x="14.0" y="36.0" width="9" height="64.0" rx="2"/><rect class="funnel-bar spine" x="151.8" y="36.0" width="9" height="61.4" rx="2"/><rect class="funnel-bar spine" x="289.7" y="36.0" width="9" height="35.8" rx="2"/><rect class="funnel-bar spine" x="427.5" y="36.0" width="9" height="30.7" rx="2"/><rect class="funnel-bar spine" x="565.3" y="36.0" width="9" height="30.7" rx="2"/><rect class="funnel-bar spine" x="703.2" y="36.0" width="9" height="28.2" rx="2"/><rect class="funnel-bar success" x="841.0" y="36.0" width="9" height="23.0" rx="2"/><rect class="funnel-bar fail" x="841.0" y="67.0" width="9" height="5.1" rx="2"/><rect class="funnel-bar fail" x="703.2" y="72.2" width="9" height="2.6" rx="2"/><rect class="funnel-bar fail" x="427.5" y="74.7" width="9" height="5.1" rx="2"/><rect class="funnel-bar fail" x="289.7" y="79.8" width="9" height="25.6" rx="2"/><rect class="funnel-bar fail" x="151.8" y="105.4" width="9" height="2.6" rx="2"/><text class="funnel-name start" x="18.5" y="12.0" text-anchor="middle">All Trials</text><text class="funnel-sub start" x="18.5" y="26.0" text-anchor="middle">25</text><text class="funnel-name spine" x="156.3" y="12.0" text-anchor="middle">Open Oven</text><text class="funnel-sub spine" x="156.3" y="26.0" text-anchor="middle">24 · 96%</text><text class="funnel-name spine" x="294.2" y="12.0" text-anchor="middle">Pull Tray</text><text class="funnel-sub spine" x="294.2" y="26.0" text-anchor="middle">14 · 58%</text><text class="funnel-name spine" x="432.0" y="12.0" text-anchor="middle">Pick Pan</text><text class="funnel-sub spine" x="432.0" y="26.0" text-anchor="middle">12 · 86%</text><text class="funnel-name spine" x="569.8" y="12.0" text-anchor="middle">Place Pan</text><text class="funnel-sub spine" x="569.8" y="26.0" text-anchor="middle">12 · 100%</text><text class="funnel-name spine" x="707.7" y="12.0" text-anchor="middle">Push Tray</text><text class="funnel-sub spine" x="707.7" y="26.0" text-anchor="middle">11 · 92%</text><text class="funnel-name success" x="845.5" y="12.0" text-anchor="middle">Close Oven ✓</text><text class="funnel-sub success" x="845.5" y="26.0" text-anchor="middle">9 · 82%</text><text class="funnel-name fail" x="856.0" y="68.6">✗ 2</text><text class="funnel-sub fail" x="856.0" y="80.6">no close oven</text><text class="funnel-name fail" x="718.2" y="72.4">✗ 1</text><text class="funnel-sub fail" x="718.2" y="84.4">no push tray</text><text class="funnel-name fail" x="442.5" y="76.3">✗ 2</text><text class="funnel-sub fail" x="442.5" y="88.3">no pick pan</text><text class="funnel-name fail" x="304.7" y="91.6">✗ 10</text><text class="funnel-sub fail" x="304.7" y="103.6">no pull tray</text><text class="funnel-name fail" x="166.8" y="105.7">✗ 1</text><text class="funnel-sub fail" x="166.8" y="117.7">no open oven</text>
    </svg>
