<svg xmlns="http://www.w3.org/2000/svg" class="funnel-svg" viewBox="-28 0 993 124.0" preserveAspectRatio="xMidYMid meet" role="img" aria-label="Without foveation: Tape"><style>.funnel-flow{stroke:none}.funnel-flow.spine{fill:#059669;opacity:.16}.funnel-flow.success{fill:#059669;opacity:.55}.funnel-flow.win{fill:#059669;opacity:.42}.funnel-flow.fail{fill:#b91c1c;opacity:.38}.funnel-bar.start{fill:#aaa}.funnel-bar.spine,.funnel-bar.success,.funnel-bar.win{fill:#059669}.funnel-bar.fail{fill:#b91c1c}.funnel-name{font-family:Arial,sans-serif;font-size:12.5px;font-weight:600;fill:#333}.funnel-sub{font-family:Arial,sans-serif;font-size:11px;fill:#777}.funnel-name.success,.funnel-name.win,.funnel-sub.success,.funnel-sub.win{fill:#059669}.funnel-name.fail,.funnel-sub.fail{fill:#b91c1c}</style>
      <path class="funnel-flow spine" d="M23.0,36.0 C156.3,36.0 156.3,36.0 289.7,36.0 L289.7,84.0 C156.3,84.0 156.3,84.0 23.0,84.0 Z"/><path class="funnel-flow fail" d="M23.0,84.0 C156.3,84.0 156.3,92.0 289.7,92.0 L289.7,108.0 C156.3,108.0 156.3,100.0 23.0,100.0 Z"/><path class="funnel-flow spine" d="M298.7,36.0 C432.0,36.0 432.0,36.0 565.3,36.0 L565.3,84.0 C432.0,84.0 432.0,84.0 298.7,84.0 Z"/><path class="funnel-flow success" d="M574.3,36.0 C707.7,36.0 707.7,36.0 841.0,36.0 L841.0,83.0 C707.7,83.0 707.7,83.0 574.3,83.0 Z"/><path class="funnel-flow fail" d="M574.3,83.0 C707.7,83.0 707.7,91.0 841.0,91.0 L841.0,92.0 C707.7,92.0 707.7,84.0 574.3,84.0 Z"/><rect class="funnel-bar start" x="14.0" y="36.0" width="9" height="64.0" rx="2"/><rect class="funnel-bar spine" x="289.7" y="36.0" width="9" height="48.0" rx="2"/><rect class="funnel-bar spine" x="565.3" y="36.0" width="9" height="48.0" rx="2"/><rect class="funnel-bar success" x="841.0" y="36.0" width="9" height="47.0" rx="2"/><rect class="funnel-bar fail" x="841.0" y="91.0" width="9" height="1.5" rx="2"/><rect class="funnel-bar fail" x="289.7" y="92.0" width="9" height="16.0" rx="2"/><text class="funnel-name start" x="18.5" y="12.0" text-anchor="middle">All Trials</text><text class="funnel-sub start" x="18.5" y="26.0" text-anchor="middle">64</text><text class="funnel-name spine" x="294.2" y="12.0" text-anchor="middle">Pick Yellow</text><text class="funnel-sub spine" x="294.2" y="26.0" text-anchor="middle">48 · 75%</text><text class="funnel-name spine" x="569.8" y="12.0" text-anchor="middle">Handoff</text><text class="funnel-sub spine" x="569.8" y="26.0" text-anchor="middle">48 · 100%</text><text class="funnel-name success" x="845.5" y="12.0" text-anchor="middle">Place Yellow ✓</text><text class="funnel-sub success" x="845.5" y="26.0" text-anchor="middle">47 · 98%</text><text class="funnel-name fail" x="856.0" y="90.5">✗ 1</text><text class="funnel-sub fail" x="856.0" y="102.5">no place yellow</text><text class="funnel-name fail" x="304.7" y="99.0">✗ 16</text><text class="funnel-sub fail" x="304.7" y="111.0">no pick yellow</text>
    </svg>
