<svg xmlns="http://www.w3.org/2000/svg" width="760" height="275" viewBox="0 0 760 275" role="img" aria-labelledby="title desc">
<title id="title">Average performance with distractors</title>
<desc id="desc">Success: Passive stereo 0.0%, Ego + Wrist 10.666666666666666%, EyeRobot 2.0 22.666666666666668%; Progression: Passive stereo 6.444444444444445%, Ego + Wrist 25.11111111111111%, EyeRobot 2.0 44.666666666666664%; First grasp: Passive stereo 16.0%, Ego + Wrist 46.666666666666664%, EyeRobot 2.0 74.66666666666667%</desc>
<defs><pattern id="hatch" width="7" height="7" patternUnits="userSpaceOnUse" patternTransform="rotate(45)"><rect width="7" height="7" fill="#f2986f"/><path d="M0 0V7" stroke="#fff" stroke-width="1"/></pattern></defs>
<style>text{font-family:"Avenir Next",Avenir,"Open Sans",sans-serif;fill:#555;font-size:13px}.tick{fill:#8c9093;font-size:11px}.value{fill:#333;font-size:11px}.grid{stroke:#e8ebed;stroke-width:1}</style>
<line class="grid" x1="42" x2="748" y1="240.0" y2="240.0"/><text class="tick" x="34" y="244.0" text-anchor="end">0</text>
<line class="grid" x1="42" x2="748" y1="188.0" y2="188.0"/><text class="tick" x="34" y="192.0" text-anchor="end">25</text>
<line class="grid" x1="42" x2="748" y1="136.0" y2="136.0"/><text class="tick" x="34" y="140.0" text-anchor="end">50</text>
<line class="grid" x1="42" x2="748" y1="84.0" y2="84.0"/><text class="tick" x="34" y="88.0" text-anchor="end">75</text>
<line class="grid" x1="42" x2="748" y1="32.0" y2="32.0"/><text class="tick" x="34" y="36.0" text-anchor="end">100%</text>
<rect x="108.0" y="240.0" width="36" height="0.0" rx="1" fill="#7fc0a3"/><text class="value" x="126.0" y="232.0" text-anchor="middle">0</text>
<rect x="146.0" y="217.81333333333333" width="36" height="22.186666666666664" rx="1" fill="#5c8fc5"/><text class="value" x="164.0" y="209.81333333333333" text-anchor="middle">11</text>
<rect x="184.0" y="192.85333333333332" width="36" height="47.14666666666667" rx="1" fill="url(#hatch)"/><text class="value" x="202.0" y="184.85333333333332" text-anchor="middle">23</text>
<text x="164.0" y="266" text-anchor="middle">Success</text>
<rect x="340.0" y="226.59555555555556" width="36" height="13.404444444444445" rx="1" fill="#7fc0a3"/><text class="value" x="358.0" y="218.59555555555556" text-anchor="middle">6</text>
<rect x="378.0" y="187.76888888888888" width="36" height="52.23111111111111" rx="1" fill="#5c8fc5"/><text class="value" x="396.0" y="179.76888888888888" text-anchor="middle">25</text>
<rect x="416.0" y="147.09333333333333" width="36" height="92.90666666666667" rx="1" fill="url(#hatch)"/><text class="value" x="434.0" y="139.09333333333333" text-anchor="middle">45</text>
<text x="396.0" y="266" text-anchor="middle">Progression</text>
<rect x="572.0" y="206.72" width="36" height="33.28" rx="1" fill="#7fc0a3"/><text class="value" x="590.0" y="198.72" text-anchor="middle">16</text>
<rect x="610.0" y="142.93333333333334" width="36" height="97.06666666666666" rx="1" fill="#5c8fc5"/><text class="value" x="628.0" y="134.93333333333334" text-anchor="middle">47</text>
<rect x="648.0" y="84.69333333333333" width="36" height="155.30666666666667" rx="1" fill="url(#hatch)"/><text class="value" x="666.0" y="76.69333333333333" text-anchor="middle">75</text>
<text x="628.0" y="266" text-anchor="middle">First grasp</text>
</svg>
